<?xml version="1.0" encoding="UTF-8" standalone="no"?>
<!-- Created with Inkscape (http://www.inkscape.org/) -->

<svg
   version="1.1"
   id="svg1"
   width="1890"
   height="1418"
   viewBox="0 0 1890 1418"
   xmlns="http://www.w3.org/2000/svg"
   xmlns:svg="http://www.w3.org/2000/svg">
  <defs
     id="defs1" />
  <g
     id="g1">
    <path
       style="fill:#000000"
       d="m 882,648.92331 c -21.98679,-1.25765 -39.04869,-6.73083 -56.76417,-18.20901 -23.91418,-15.49443 -42.46447,-40.97659 -49.22481,-67.6191 -1.17296,-4.62264 -2.5394,-14.29764 -3.03654,-21.5 -0.49714,-7.20236 -0.91978,-76.6577 -0.93919,-154.3452 L 772,246 l 202.44243,0 202.44247,0 28.4718,-28.03299 28.4718,-28.03298 16.3358,-0.57755 c 21.0961,-0.74585 45.8332,0.83779 56.8694,3.64072 19.9644,5.07047 34.0318,16.60183 38.5443,31.59561 2.5183,8.36785 3.5685,20.73041 2.3885,28.11712 -1.7553,10.98746 -4.9723,17.24736 -17.5925,34.23218 l -11.874,15.98071 -100.3875,0.0386 -100.3875,0.0386 0.7069,8.75 c 1.6921,20.94201 7.8402,38.29679 20.1043,56.75 17.5891,26.46544 50.0483,46.28381 81.559,49.79687 l 11.1345,1.24136 -64.2854,85.98088 c -73.0587,97.71502 -72.9871,97.62291 -85.9016,110.48461 -24.3681,24.26847 -39.9988,31.15638 -74.9132,33.01172 -20.58097,1.09366 -104.48786,1.03139 -124.1295,-0.0921 z"
       id="path1" />
  </g>
</svg>
