<?xml version="1.0" encoding="UTF-8" standalone="no"?>
<!-- Created with Inkscape (http://www.inkscape.org/) -->

<svg
   version="1.1"
   id="svg1"
   width="1890"
   height="1418"
   viewBox="0 0 1890 1418"
   xmlns="http://www.w3.org/2000/svg"
   xmlns:svg="http://www.w3.org/2000/svg">
  <defs
     id="defs1" />
  <g
     id="g1">
    <path
       style="fill:#000000"
       d="m 142.39184,532.33592 c 0.31964,-1.00975 2.12848,-8.63313 4.01965,-16.94082 20.61226,-90.54748 80.37864,-172.72228 160.45853,-220.61979 22.56552,-13.49693 54.23631,-27.37651 79.12998,-34.67835 13.19511,-3.8704 35.88745,-8.53343 51.43403,-10.56912 15.20999,-1.99162 66.29903,-3.48817 119.83937,-3.51045 L 599.0468,246 l -0.59435,8.25 c -3.52131,48.87809 -10.81852,78.78092 -27.90487,114.34983 -28.92639,60.2165 -75.02909,106.92899 -134.04758,135.82062 -23.26097,11.38706 -42.60439,18.01136 -67.82527,23.22727 -26.51183,5.4829 -27.95318,5.5495 -131.01939,6.05451 -92.64984,0.45396 -95.82529,0.40842 -95.2635,-1.36631 z"
       id="path1" />
  </g>
</svg>
