<?xml version="1.0" encoding="UTF-8" standalone="no"?>
<!-- Created with Inkscape (http://www.inkscape.org/) -->

<svg
   version="1.1"
   id="svg1"
   width="1890"
   height="1418"
   viewBox="0 0 1890 1418"
   xmlns="http://www.w3.org/2000/svg"
   xmlns:svg="http://www.w3.org/2000/svg">
  <defs
     id="defs1" />
  <g
     id="g1">
    <path
       style="fill:#000000"
       d="m 137,1313 v -87 H 79.5 22 l 0.01547,-325.25 C 22.025198,696.26202 22.399786,569.93065 23.024356,560.5 25.721935,519.76808 32.841583,483.21509 45.391234,445.6662 63.792738,390.6084 95.04884,335.51311 132.85123,291.5 202.17865,210.7825 300.635,154.59868 402.73882,137.48948 c 37.42793,-6.27168 8.87732,-5.79479 384.32647,-6.41949 L 1129.6306,130.5 l 13.4347,-12.67828 c 41.8518,-39.495346 73.0976,-61.868512 108.5942,-77.757527 54.4343,-24.36586 124.6516,-31.1402724 192.6321,-18.584725 46.8794,8.658311 93.1837,29.958701 131.85,60.652237 6.6868,5.308058 55.374,52.972375 137.3584,134.472585 69.85,69.4375 133.075,132.36343 140.5,139.8354 l 13.5,13.5854 0.3108,30.73746 c 0.4383,43.3462 -1.7591,61.35414 -10.7972,88.48181 -4.4859,13.46431 -16.1386,38.02491 -23.6065,49.75564 -24.708,38.8119 -57.2162,68.17855 -96.9071,87.54215 -21.3081,10.39536 -37.8034,15.78937 -61,19.94717 -12.7846,2.29154 -49.9727,3.39236 -121,3.58177 -33.55,0.0895 -63.8877,0.44758 -67.4171,0.79579 l -6.4171,0.63312 -47.6036,105 c -26.182,57.75 -50.4576,110.3804 -53.9459,116.95644 -20.3898,38.4384 -45.6807,66.16157 -78.783,86.35957 l -9.3154,5.68399 -0.01,217.25 L 1291,1400 H 1118.5271 946.05419 L 945.77709,1279.5063 945.5,1159.0126 917,1130.5003 888.5,1101.988 888.2244,1048.994 887.94879,996 h -12.37518 -12.37519 l -6.93507,13.75 c -3.81429,7.5625 -9.58016,18.025 -12.81305,23.25 -26.24596,42.4188 -69.28577,81.8384 -113.62142,104.0643 -3.48088,1.745 -6.43151,3.2595 -6.55694,3.3656 -0.12543,0.1061 23.11824,58.5528 51.65261,129.8815 L 826.80521,1400 H 481.9026 137 Z"
       id="path1" />
  </g>
</svg>
