<?xml version="1.0" encoding="UTF-8" standalone="no"?>
<!-- Created with Inkscape (http://www.inkscape.org/) -->

<svg
   version="1.1"
   id="svg1"
   width="1890"
   height="1418"
   viewBox="0 0 1890 1418"
   xmlns="http://www.w3.org/2000/svg"
   xmlns:svg="http://www.w3.org/2000/svg">
  <defs
     id="defs1" />
  <g
     id="g1">
    <path
       style="fill:#000000"
       d="m 137,1313 v -87 H 79.5 22 l 0.01547,-325.25 C 22.025198,696.26202 22.399786,569.93065 23.024356,560.5 25.721935,519.76808 32.841583,483.21509 45.391234,445.6662 63.792738,390.6084 95.04884,335.51311 132.85123,291.5 202.17865,210.7825 300.635,154.59868 402.73882,137.48948 c 37.62554,-6.30479 8.44213,-5.83373 384.11295,-6.20021 l 342.35173,-0.33399 13.6483,-12.91148 c 57.9162,-54.789872 98.6483,-79.365198 155.0306,-93.536277 35.8385,-9.00763 77.6027,-11.408028 119.6176,-6.875016 59.7406,6.445454 112.5964,27.950114 158.7568,64.590997 6.5398,5.191104 56.16,53.776416 137.2432,134.380786 69.85,69.4375 133.075,132.36343 140.5,139.8354 l 13.5,13.5854 0.3108,30.73746 c 0.4383,43.3462 -1.7591,61.35414 -10.7972,88.48181 -4.4859,13.46431 -16.1386,38.02491 -23.6065,49.75564 -24.708,38.8119 -57.2162,68.17855 -96.9071,87.54215 -21.3081,10.39536 -37.8034,15.78937 -61,19.94717 -13.2846,2.38117 -51.1315,3.41304 -127.084,3.46489 L 1481.3319,650 1435.5318,751.25 c -25.1901,55.6875 -49.4986,108.48128 -54.0188,117.31951 -21.4486,41.93726 -46.4821,70.07512 -81.1797,91.2465 l -9.3154,5.68399 -0.01,217.25 L 1291,1400 H 1118.5 946 v -120.2436 l 0,-120.2437 -28.75,-28.7622 -28.75,-28.7623 -0.2756,-52.9941 L 887.94879,996 h -12.37518 -12.37519 l -6.93507,13.75 c -3.81429,7.5625 -9.58016,18.025 -12.81305,23.25 -26.24596,42.4188 -69.28577,81.8384 -113.62142,104.0643 -3.48088,1.745 -6.43151,3.2595 -6.55694,3.3656 -0.12543,0.1061 23.11824,58.5528 51.65261,129.8815 L 826.80521,1400 H 481.9026 137 Z M 368,1169.5 V 1054 h 36.87076 36.87076 l 49.46722,115.25 49.46722,115.25 58.16202,0.2581 C 630.82709,1284.9 657,1284.7513 657,1284.4276 c 0,-0.3236 -20.52511,-51.7398 -45.61136,-114.258 -25.08625,-62.5183 -45.81873,-114.1913 -46.07218,-114.8289 -0.3407,-0.8571 7.18191,-1.2768 28.86136,-1.6102 25.4034,-0.3907 30.65864,-0.7447 39.32218,-2.6482 35.67165,-7.8379 65.84522,-24.7276 90.19289,-50.4856 28.79657,-30.46472 45.47273,-68.46826 47.98189,-109.3467 L 772.30393,881 H 887.65197 1003 v 86.74353 86.74357 l 28.25,28.2628 28.25,28.2628 0.2662,86.9936 0.2662,86.9937 H 1118.5162 1177 v -201.8139 -201.814 l 11.75,-1.13345 c 13.5721,-1.30922 23.8838,-3.77942 34.8713,-8.35354 21.0482,-8.76236 41.7355,-28.56446 54.2045,-51.88511 2.2056,-4.125 27.4971,-59.475 56.2034,-123 28.7063,-63.525 56.9284,-125.94597 62.7158,-138.71326 l 10.5226,-23.21326 124.1162,-0.30019 124.1162,-0.30019 9.7297,-2.72803 c 21.3236,-5.97874 39.6029,-16.4762 54.3196,-31.19466 19.7758,-19.77815 30.6018,-42.75326 33.4533,-70.99496 l 1.105,-10.94456 L 1639.3038,303.7555 C 1576.1617,240.58504 1520.1812,185.05601 1514.9027,180.35767 1500.6593,167.67983 1489.183,159.82778 1473,151.68803 1443.3733,136.78633 1414.0882,130 1379.4094,130 c -34.4121,0 -63.8121,6.39417 -91.9094,19.98926 -25.3606,12.27093 -32.7735,18.23255 -75.795,60.95646 L 1176.91,245.5 814.20501,246.05193 C 477.7548,246.56391 450.63979,246.72875 439.61633,248.32927 397.971,254.37582 366.64435,263.83845 331.5,280.98725 296.33855,298.1444 268.66637,318.07098 239.97157,346.89636 220.74638,366.20903 209.85848,379.47467 195.56548,401 168.08317,442.3885 152.70782,479.81992 142.57267,530.01146 136.86149,558.29452 137,550.50729 137,843.31144 l 0,268.99016 9.25,-0.6135 c 31.75315,-2.1064 63.87603,-20.1333 83.99392,-47.1363 7.76052,-10.4165 16.13433,-27.6624 19.20455,-39.5518 l 2.4532,-9.5 0.0492,134.75 L 252,1285 h 58 58 z M 251.17471,923.3658 c -0.0961,-1.17382 -2.02337,-5.82772 -4.28284,-10.34201 C 238.41269,896.08292 221.14956,883.32454 203.25,880.77012 L 195,879.59278 V 766.12972 c 0,-62.40468 0.18131,-113.27555 0.4029,-113.04639 0.2216,0.22917 12.89838,32.36667 28.17062,71.41667 l 27.76771,71 0.41186,60.5 c 0.35052,51.48806 0.13896,76.12878 -0.57838,67.3658 z"
       id="path2" />
    <path
       style="fill:#000000"
       d="m 137,1313 v -87 H 79.5 22 l 0.01547,-325.25 C 22.025198,696.26202 22.399786,569.93065 23.024356,560.5 25.721935,519.76808 32.841583,483.21509 45.391234,445.6662 63.792738,390.6084 95.04884,335.51311 132.85123,291.5 202.17865,210.7825 300.635,154.59868 402.73882,137.48948 c 37.62554,-6.30479 8.44213,-5.83373 384.11295,-6.20021 l 342.35173,-0.33399 13.6483,-12.91148 c 57.9162,-54.789872 98.6483,-79.365198 155.0306,-93.536277 35.8385,-9.00763 77.6027,-11.408028 119.6176,-6.875016 59.7406,6.445454 112.5964,27.950114 158.7568,64.590997 6.5398,5.191104 56.16,53.776416 137.2432,134.380786 69.85,69.4375 133.075,132.36343 140.5,139.8354 l 13.5,13.5854 0.3108,30.73746 c 0.4383,43.3462 -1.7591,61.35414 -10.7972,88.48181 -4.4859,13.46431 -16.1386,38.02491 -23.6065,49.75564 -24.708,38.8119 -57.2162,68.17855 -96.9071,87.54215 -21.3081,10.39536 -37.8034,15.78937 -61,19.94717 -13.2846,2.38117 -51.1315,3.41304 -127.084,3.46489 L 1481.3319,650 1435.5318,751.25 c -25.1901,55.6875 -49.4986,108.48128 -54.0188,117.31951 -21.4486,41.93726 -46.4821,70.07512 -81.1797,91.2465 l -9.3154,5.68399 -0.01,217.25 L 1291,1400 H 1118.5 946 v -120.2436 l 0,-120.2437 -28.75,-28.7622 -28.75,-28.7623 -0.2756,-52.9941 L 887.94879,996 h -12.37518 -12.37519 l -6.93507,13.75 c -3.81429,7.5625 -9.58016,18.025 -12.81305,23.25 -26.24596,42.4188 -69.28577,81.8384 -113.62142,104.0643 -3.48088,1.745 -6.43151,3.2595 -6.55694,3.3656 -0.12543,0.1061 23.11824,58.5528 51.65261,129.8815 L 826.80521,1400 H 481.9026 137 Z M 368,1169.5 V 1054 h 36.87076 36.87076 l 49.46722,115.25 49.46722,115.25 58.16202,0.2581 C 630.82709,1284.9 657,1284.7513 657,1284.4276 c 0,-0.3236 -20.52511,-51.7398 -45.61136,-114.258 -25.08625,-62.5183 -45.81873,-114.1913 -46.07218,-114.8289 -0.3407,-0.8571 7.18191,-1.2768 28.86136,-1.6102 25.4034,-0.3907 30.65864,-0.7447 39.32218,-2.6482 35.67165,-7.8379 65.84522,-24.7276 90.19289,-50.4856 28.79657,-30.46472 45.47273,-68.46826 47.98189,-109.3467 L 772.30393,881 H 887.65197 1003 v 86.74353 86.74357 l 28.25,28.2628 28.25,28.2628 0.2662,86.9936 0.2662,86.9937 H 1118.5162 1177 v -201.8139 -201.814 l 11.75,-1.13345 c 13.5721,-1.30922 23.8838,-3.77942 34.8713,-8.35354 21.0482,-8.76236 41.7355,-28.56446 54.2045,-51.88511 2.2056,-4.125 27.4971,-59.475 56.2034,-123 28.7063,-63.525 56.9284,-125.94597 62.7158,-138.71326 l 10.5226,-23.21326 124.1162,-0.30019 124.1162,-0.30019 9.7297,-2.72803 c 21.3236,-5.97874 39.6029,-16.4762 54.3196,-31.19466 19.7758,-19.77815 30.6018,-42.75326 33.4533,-70.99496 l 1.105,-10.94456 L 1639.3038,303.7555 C 1576.1617,240.58504 1520.1812,185.05601 1514.9027,180.35767 1500.6593,167.67983 1489.183,159.82778 1473,151.68803 1443.3733,136.78633 1414.0882,130 1379.4094,130 c -34.4121,0 -63.8121,6.39417 -91.9094,19.98926 -25.3606,12.27093 -32.7735,18.23255 -75.795,60.95646 L 1176.91,245.5 814.20501,246.05193 C 477.7548,246.56391 450.63979,246.72875 439.61633,248.32927 397.971,254.37582 366.64435,263.83845 331.5,280.98725 296.33855,298.1444 268.66637,318.07098 239.97157,346.89636 220.74638,366.20903 209.85848,379.47467 195.56548,401 168.08317,442.3885 152.70782,479.81992 142.57267,530.01146 136.86149,558.29452 137,550.50729 137,843.31144 l 0,268.99016 9.25,-0.6135 c 31.75315,-2.1064 63.87603,-20.1333 83.99392,-47.1363 7.76052,-10.4165 16.13433,-27.6624 19.20455,-39.5518 l 2.4532,-9.5 0.0492,134.75 L 252,1285 h 58 58 z M 251.17471,923.3658 c -0.0961,-1.17382 -2.02337,-5.82772 -4.28284,-10.34201 C 238.41269,896.08292 221.14956,883.32454 203.25,880.77012 L 195,879.59278 V 766.12972 c 0,-62.40468 0.18131,-113.27555 0.4029,-113.04639 0.2216,0.22917 12.89838,32.36667 28.17062,71.41667 l 27.76771,71 0.41186,60.5 c 0.35052,51.48806 0.13896,76.12878 -0.57838,67.3658 z"
       id="path1" />
  </g>
</svg>
