<?xml version="1.0" encoding="UTF-8" standalone="no"?>
<!-- Created with Inkscape (http://www.inkscape.org/) -->

<svg
   version="1.1"
   id="svg1"
   width="1890"
   height="1418"
   viewBox="0 0 1890 1418"
   xmlns="http://www.w3.org/2000/svg"
   xmlns:svg="http://www.w3.org/2000/svg">
  <defs
     id="defs1" />
  <g
     id="g1">
    <path
       style="fill:#000000"
       d="M 252.75601,1040.25 252.5,796.5 224.39007,725 c -15.46047,-39.325 -28.36244,-72.175 -28.67106,-73 -0.30861,-0.825 -0.59664,50.1375 -0.64006,113.25 L 195,880 H 166.5 138 l 0.008,-155.75 c 0.008,-150.3988 0.20451,-161.93688 3.09229,-181.5 l 1.14401,-7.75 79.12775,-0.0222 c 81.70619,-0.0229 111.32986,-0.8033 129.93294,-3.4229 21.50931,-3.02885 45.00474,-9.32336 66.01166,-17.68476 C 521.90192,472.24208 593.33188,372.32827 598.63389,260.25 l 0.67412,-14.25 85.77972,0 85.77972,0 0.419,150.75 c 0.45646,164.22745 0.16125,155.9059 6.16271,173.72131 14.23955,42.2703 53.01572,74.16515 95.40679,78.47565 13.74464,1.39761 132.58615,1.39451 146.28805,-0.004 6.9221,-0.70641 13.997,-2.26422 21.3365,-4.69802 15.4042,-5.10807 25.3642,-11.96571 42.5195,-29.27548 12.4707,-12.58297 18.6848,-20.56464 81.5,-104.6817 l 68,-91.06013 8,-0.68104 c 21.8631,-1.86122 45.3665,-9.89773 60.378,-20.64505 3.0921,-2.21373 26.1486,-24.46707 51.2366,-49.45186 l 45.6146,-45.42689 -38.9032,-0.26149 -38.9032,-0.26148 10.8717,-14.58948 c 5.9794,-8.02421 11.8275,-16.57421 12.9957,-19 6.568,-13.63804 7.0814,-32.55996 1.3014,-47.95542 -2.5221,-6.7175 -10.4791,-15.94842 -17.7651,-20.60926 -6.91,-4.42026 -20.6797,-8.94175 -31.6313,-10.3866 -4.8427,-0.63889 -20.2765,-1.45359 -34.2975,-1.81043 L 1235.905,187.5 l 8.9861,-7.90757 c 13.9959,-12.31609 25.3301,-19.95011 41.6089,-28.02523 17.2913,-8.57738 31.5994,-13.39895 51.1661,-17.24196 12.926,-2.53874 15.6059,-2.71955 40.8339,-2.75493 29.2697,-0.0411 34.5056,0.54715 57.2021,6.42617 25.0471,6.48786 50.9791,19.87621 71.7979,37.06831 3.85,3.17932 47.4985,46.31483 96.9967,95.8567 l 89.9968,90.07613 -41.9966,42.25119 c -23.0981,23.23815 -61.7947,62.16369 -85.9925,86.50119 l -43.996,44.25 -56.0042,0.0136 c -30.8023,0.008 -56.9378,0.26437 -58.0789,0.5708 -1.6499,0.44306 -14.5336,28.13212 -62.9255,135.23634 -33.4679,74.07357 -62.8449,138.72921 -65.2823,143.67921 -18.0779,36.71389 -46.5154,59.16126 -82.301,64.96483 -5.1791,0.83992 -12.229,1.52894 -15.6665,1.53115 L 1176,880 v 202 202 h -57.5 -57.5 v -86.2102 l 0,-86.2102 -28.5054,-28.5678 -28.5054,-28.5677 -0.4146,-15.9721 c -0.2281,-8.7846 -0.4506,-48.0345 -0.4946,-87.222 L 1003,880 876.64522,880 c -75.85214,0 -131.50886,-0.40351 -139.25,-1.00956 -61.58918,-4.82179 -117.8036,-21.02909 -175.00593,-50.45635 L 544.27858,819.21719 455.88929,907.6104 367.5,996.00361 367.19723,1140.0018 366.89447,1284 H 309.95324 253.01202 Z M 1507.6555,357.46773 c 5.9221,-2.89741 9.6876,-6.87402 12.7527,-13.46773 2.0003,-4.30325 2.0918,-6.07398 2.0918,-40.5 0,-34.58576 -0.083,-36.18029 -2.1227,-40.58939 -6.0855,-13.15708 -21.2537,-19.70483 -35.8305,-15.46723 -4.5149,1.31252 -6.9717,2.85111 -11.0254,6.90475 -8.6461,8.64612 -8.9031,10.09032 -8.8372,49.65187 0.053,31.88035 0.1606,33.77349 2.2228,39.15669 3.2102,8.38029 10.0341,14.27617 19.593,16.92848 5.1982,1.44236 15.4501,0.17396 21.1555,-2.61744 z"
       id="path1" />
  </g>
</svg>
