<?xml version="1.0" encoding="UTF-8" standalone="no"?>
<!-- Created with Inkscape (http://www.inkscape.org/) -->

<svg
   version="1.1"
   id="svg1"
   width="1877"
   height="1881"
   viewBox="0 0 1877 1881"
   xmlns="http://www.w3.org/2000/svg"
   xmlns:svg="http://www.w3.org/2000/svg">
  <defs
     id="defs1" />
  <g
     id="g1">
    <path
       style="fill:#000000"
       d="M 308.67579,757.30375 C 325.15426,725.85431 338.33014,704.38824 377.91482,644.5 423.68888,575.24774 439.19758,550.7429 452.08973,527.29838 L 455.5,521.09676 492,557.31735 c 38.85667,38.55921 41.30137,40.55843 57,46.61342 41.54704,16.02478 86.97038,-0.39967 108.3444,-39.17581 18.78711,-34.08304 11.73973,-78.94211 -16.54303,-105.30226 -3.51278,-3.27399 -24.91946,-19.36591 -47.57041,-35.75984 -22.65096,-16.39393 -41.36513,-30.11893 -41.58706,-30.5 -1.14292,-1.9625 39.28044,-35.65231 60.60339,-50.50834 C 648.8401,317.18975 693.0363,294.08106 734,279.02417 c 37.45211,-13.76614 81.3718,-24.09024 121.5,-28.56072 13.99131,-1.5587 52.44738,-3.37243 72.76603,-3.43193 L 939.03207,247 938.76603,334.75 938.5,422.5 930.39159,439.08658 C 920.40665,459.51178 912.44727,473.44716 900.74051,491 864.5322,545.28987 816.07463,596.71263 755,645.65858 c -71.59532,57.37735 -152.45727,99.18495 -220.0461,113.76919 -27.64784,5.96582 -26.051,5.88998 -132.67244,6.30106 l -98.21855,0.37868 z"
       id="path1" />
  </g>
</svg>
