<?xml version="1.0" encoding="UTF-8" standalone="no"?>
<!-- Created with Inkscape (http://www.inkscape.org/) -->

<svg
   version="1.1"
   id="svg1"
   width="1877"
   height="1881"
   viewBox="0 0 1877 1881"
   xmlns="http://www.w3.org/2000/svg"
   xmlns:svg="http://www.w3.org/2000/svg">
  <defs
     id="defs1" />
  <g
     id="g1">
    <path
       style="fill:#000000"
       d="m 838.86953,937.9993 c -17.06008,-2.71942 -36.52823,-13.34718 -49.09378,-26.80053 -10.184,-10.90353 -18.5717,-26.85855 -21.92143,-41.69877 -1.07002,-4.74047 -1.34886,-20.58959 -1.32829,-75.5 0.0257,-68.53177 0.0567,-69.61145 2.2314,-77.5 2.81513,-10.21184 9.90752,-24.24594 16.29389,-32.24159 10.38164,-12.99767 29.56072,-25.48915 45.94868,-29.92673 9.38732,-2.54193 35.10268,-2.5034 43.5,0.0652 27.3801,8.37503 49.24751,27.65531 58.3637,51.4587 5.70997,14.90935 5.63785,13.75215 5.61772,90.14444 -0.0185,70.09069 -0.0317,70.54645 -2.27289,78.5 -8.63059,30.62786 -30.95138,53.04743 -61.20853,61.47939 -8.59005,2.39384 -27.24271,3.43664 -36.13047,2.01991 z"
       id="path1" />
  </g>
</svg>
