<?xml version="1.0" encoding="UTF-8" standalone="no"?>
<!-- Created with Inkscape (http://www.inkscape.org/) -->

<svg
   version="1.1"
   id="svg1"
   width="1877"
   height="1881"
   viewBox="0 0 1877 1881"
   xmlns="http://www.w3.org/2000/svg"
   xmlns:svg="http://www.w3.org/2000/svg">
  <defs
     id="defs1" />
  <g
     id="g1">
    <path
       style="fill:#000000"
       d="M 568.5,608.95188 C 555.46822,606.90753 540.56618,600.50177 529,591.9725 523.52919,587.93815 428.03491,492.07599 181.36671,243 130.77438,191.91383 132.5,194.31509 132.5,175 c 0,-11.69088 0.18276,-12.87218 2.82343,-18.24976 4.11719,-8.38441 11.3688,-15.8042 19.90182,-20.36336 L 162.5,132.5 h 12.08884 c 11.54939,0 12.35262,0.13722 18,3.07503 3.25114,1.69127 85.33616,60.66262 182.41116,131.04744 97.075,70.38482 195.27085,141.58148 218.21301,158.21481 22.94216,16.63333 44.23193,32.54456 47.3106,35.35829 9.99664,9.13637 18.90049,23.77127 23.63475,38.8475 2.0824,6.63139 2.33637,9.33897 2.29403,24.45693 -0.044,15.71844 -0.24988,17.60309 -2.73072,25 -9.3795,27.96612 -34.20838,51.58879 -61.58602,58.5941 -8.97597,2.29675 -25.14473,3.18979 -33.63565,1.85778 z"
       id="path1" />
  </g>
</svg>
