<?xml version="1.0" encoding="UTF-8" standalone="no"?>
<!-- Created with Inkscape (http://www.inkscape.org/) -->

<svg
   version="1.1"
   id="svg1"
   width="2052"
   height="1623"
   viewBox="0 0 2052 1623"
   xmlns="http://www.w3.org/2000/svg"
   xmlns:svg="http://www.w3.org/2000/svg">
  <defs
     id="defs1" />
  <g
     id="g1">
    <path
       style="fill:#000000"
       d="m 1141.5,475.50729 c -15.511,-2.41568 -25.184,-7.24869 -35.2418,-17.60824 -10.0463,-10.34768 -14.4973,-19.39128 -16.6407,-33.81089 -4.3842,-29.49495 12.5542,-57.25756 40.7084,-66.72242 7.1619,-2.40769 9.6601,-2.74218 20.1741,-2.70117 10.0018,0.039 13.2651,0.46138 19.5976,2.53651 17.4387,5.71462 32.4083,20.42381 38.4681,37.79892 2.1643,6.20551 2.6343,9.39859 2.7233,18.5 0.059,6.07402 -0.4837,13.46299 -1.2129,16.5 -3.1057,12.93614 -14.46,28.41403 -26.9025,36.67289 -6.3112,4.1891 -16.9019,8.00982 -24.608,8.87756 -2.7861,0.31373 -5.9656,0.71269 -7.0656,0.88659 -1.1,0.17389 -5.6,-0.24449 -10,-0.92975 z"
       id="path1" />
  </g>
</svg>
