<?xml version="1.0" encoding="UTF-8" standalone="no"?>
<!-- Created with Inkscape (http://www.inkscape.org/) -->

<svg
   version="1.1"
   id="svg1"
   width="2052"
   height="1623"
   viewBox="0 0 2052 1623"
   xmlns="http://www.w3.org/2000/svg"
   xmlns:svg="http://www.w3.org/2000/svg">
  <defs
     id="defs1" />
  <g
     id="g1">
    <path
       style="fill:#000000"
       d="m 1150.25,968.25014 -62.25,-0.26528 0.038,-83.24243 c 0.021,-45.78334 0.4526,-90.21743 0.9593,-98.74243 1.3413,-22.56705 4.5032,-31.0478 16.2622,-43.61825 7.2988,-7.80249 14.0725,-12.334 23.7405,-15.88206 6.8039,-2.49695 8.7531,-2.75243 21,-2.75243 12.2301,0 14.2055,0.25806 21,2.74335 8.9825,3.28561 17.8239,9.34797 24.8584,17.04485 6.3675,6.96704 9.5885,12.37062 12.9566,21.73631 l 2.5995,7.22823 0.5427,98.25046 c 0.2986,54.03776 0.5428,98.14122 0.5428,98.00771 0,-0.13351 -28.0125,-0.36213 -62.25,-0.50803 z"
       id="path1" />
  </g>
</svg>
