<?xml version="1.0" encoding="UTF-8" standalone="no"?>
<!-- Created with Inkscape (http://www.inkscape.org/) -->

<svg
   version="1.1"
   id="svg1"
   width="1877"
   height="1881"
   viewBox="0 0 1877 1881"
   xmlns="http://www.w3.org/2000/svg"
   xmlns:svg="http://www.w3.org/2000/svg">
  <defs
     id="defs1" />
  <g
     id="g1">
    <path
       style="fill:#000000"
       d="m 391,1745.9106 c -53.43963,-5.1361 -105.01714,-25.9954 -149.74825,-60.5624 -13.1803,-10.1854 -40.48322,-37.989 -50.54872,-51.4756 -26.22521,-35.139 -44.35486,-74.0833 -52.54528,-112.8726 -5.08312,-24.0734 -5.64828,-30.1717 -5.65312,-61 -0.005,-30.7747 0.65135,-37.8685 5.57176,-60.2349 3.54913,-16.1331 11.45148,-38.7234 20.73153,-59.2651 6.56139,-14.5238 3.42362,-8.6275 165.69208,-311.36 l 141,-263.05355 10.10478,-0.0432 c 39.95186,-0.1709 77.76285,-8.33293 124.65052,-26.90758 C 652.67273,718.37037 709.93006,683.60271 762.5,640.61779 842.64385,575.08649 901.47521,503.94665 934.19614,433 l 5.30386,-11.5 0.034,-115 c 0.0187,-63.25 0.40675,-117.25 0.8623,-120 3.11889,-18.82796 8.67156,-31.56789 17.68901,-40.58534 10.36174,-10.36174 23.3746,-14.63388 41.66109,-13.67737 8.65297,0.4526 10.15717,0.85302 17.84127,4.74921 17.8289,9.04011 38.8432,29.77674 80.5783,79.5135 11.3622,13.54066 26.1866,28.89959 32.864,34.04894 3.9943,3.08017 214.3446,229.77396 223.8954,241.29116 22.2156,26.78973 39.4753,59.20947 44.2726,83.1599 1.0508,5.24598 1.302,60.71243 1.302,287.5 0,307.0544 0.3292,287.8126 -5.5525,324.5 -11.7097,73.0392 -41.5288,142.8881 -86.4421,202.4841 -14.2455,18.9025 -24.3022,30.3964 -42.9628,49.1023 -29.3576,29.429 -55.081,49.5648 -89.5426,70.0924 -5.775,3.44 -11.175,6.6931 -12,7.2291 -0.9771,0.6348 60.1687,0.995 175.4024,1.0333 l 176.9025,0.059 -0.6143,16.75 c -1.8789,51.2307 -20.0912,102.8633 -52.1155,147.75 -13.8241,19.3763 -36.6352,43.5261 -55.0643,58.2958 L 1399.5215,1747 H 1169.7608 C 1043.3923,1747 940,1746.8115 940,1746.5811 c 0,-0.2304 38.73467,-90.5679 86.077,-200.75 47.3424,-110.1821 86.3211,-200.9081 86.6194,-201.6132 0.4399,-1.0402 -26.8431,-1.2289 -144.57625,-1 l -145.11848,0.2821 -57.48129,57.5 -57.48129,57.5 -0.99523,17.5 c -2.22245,39.0793 -10.76833,71.6857 -27.97162,106.7247 -23.79909,48.473 -56.02477,85.8319 -99.07271,114.8539 -41.42407,27.9271 -85.51447,43.9094 -133.49953,48.3921 -12.60573,1.1776 -42.9635,1.1447 -55.5,-0.06 z M 263.26838,1509.5918 c 20.50746,-9.3598 47.2575,-20.7848 69.59272,-29.7232 48.83895,-19.5451 92.12879,-40.1666 111.6389,-53.1803 8.39005,-5.5963 20.40637,-18.1486 24.1523,-25.2295 11.84336,-22.3874 11.68485,-53.6175 -0.38948,-76.7367 -4.60742,-8.822 -14.8818,-19.848 -24.12353,-25.8882 -22.65228,-14.8053 -59.01858,-16.3334 -83.63929,-3.5146 -8.3286,4.3363 -22.6426,18.9344 -28.65082,29.2193 -6.23469,10.6727 -22.42535,43.1814 -29.73793,59.7099 -3.25218,7.3509 -11.87441,28.1896 -19.1605,46.3084 -7.28609,18.1187 -18.38312,44.4181 -24.66007,58.4431 -6.27694,14.025 -11.65833,26.0625 -11.95864,26.75 -0.30031,0.6875 -0.2646,1.25 0.0794,1.25 0.34395,0 7.9296,-3.3337 16.85699,-7.4082 z M 871.01652,937.53737 c 29.91398,-6.1164 54.1976,-27.83461 63.92587,-57.17253 2.83487,-8.54924 3.28704,-11.5685 4.22617,-28.21919 1.60078,-28.38184 0.46564,-123.55444 -1.58209,-132.64565 -6.29094,-27.92962 -22.57403,-48.30788 -47.97909,-60.04574 -35.12343,-16.22802 -75.41888,-8.10769 -101.94529,20.54401 -7.55826,8.16382 -13.70628,18.88095 -17.64451,30.75763 -2.93387,8.84776 -3.28992,11.31191 -4.07743,28.21919 -1.12057,24.05753 -1.10828,88.39059 0.0214,112.02491 0.7973,16.68068 1.19171,19.43425 4.01058,28 5.13528,15.60472 11.81201,25.9402 24.24212,37.52645 20.57741,19.18045 48.45503,26.80697 76.80227,21.01092 z"
       id="path1" />
  </g>
</svg>
