<?xml version="1.0" encoding="UTF-8" standalone="no"?>
<!-- Created with Inkscape (http://www.inkscape.org/) -->

<svg
   version="1.1"
   id="svg1"
   width="1877"
   height="1881"
   viewBox="0 0 1877 1881"
   xmlns="http://www.w3.org/2000/svg"
   xmlns:svg="http://www.w3.org/2000/svg">
  <defs
     id="defs1" />
  <g
     id="g1">
    <path
       style="fill:#000000"
       d="M 397.55539,1862.9087 C 343.90724,1860.2522 293.71261,1847.3164 244.5,1823.4642 144.19582,1774.8492 68.519404,1687.8708 34.054492,1581.5895 11.254679,1511.2805 9.158411,1428.7917 28.429653,1360.2502 c 6.765349,-24.0621 20.032975,-58.0509 33.07317,-84.7263 C 65.542256,1267.2608 114.30494,1175.45 169.86435,1071.5 l 101.0171,-189 -64.94072,-0.25724 C 168.44948,882.09425 141,881.60616 141,881.08802 c 0,-1.40891 54.43264,-154.88094 59.18253,-166.86426 12.6686,-31.96115 32.5532,-65.31111 74.64085,-125.18583 9.10001,-12.94586 20.71768,-29.92929 25.81704,-37.74095 L 309.91198,537.09396 208.20599,434.749 C 49.716311,275.26361 50.257686,275.82004 43.102472,265.05329 21.857892,233.08567 12.362461,196.12686 15.928068,159.28309 19.941498,117.81191 39.5632,79.919213 70.432874,54.02545 103.81183,26.026876 144.34387,12.677667 185.90112,15.996035 215.4922,18.358897 240.08318,26.886837 263.5,42.906659 c 4.4,3.01011 69.425,50.080276 144.5,104.600371 75.075,54.52009 137.02081,99.43547 137.65735,99.81196 0.64293,0.38027 5.94878,-2.66986 11.93742,-6.86236 75.04733,-52.53887 162.78435,-87.49824 255.84384,-101.94259 9.31624,-1.44603 17.23841,-2.81443 17.60481,-3.04088 0.36641,-0.22645 1.69063,-3.23805 2.94271,-6.69244 6.13713,-16.93189 19.75615,-39.270577 33.5528,-55.03518 34.55983,-39.489459 90.7722,-62.283021 142.66317,-57.848527 22.9205,1.958733 37.6076,6.0806 57.2979,16.080392 33.2454,16.883789 54.636,35.108624 97.6662,83.211665 13.131,14.67899 24.6528,26.91789 25.6041,27.19756 0.9514,0.27967 7.0467,1.4577 13.5452,2.61784 156.2963,27.9025 306.7584,107.01328 421.2126,221.46745 135.4198,135.41979 217.9898,312.53526 234.9743,504.02808 3.2918,37.11298 3.5881,85.85307 3.2915,541.5 l -0.2939,451.5 -549.75,0.2509 c -302.3625,0.138 -549.75,-0.041 -549.75,-0.3974 0,-0.6132 171.72795,-401.0152 172.67216,-402.6035 0.24523,-0.4125 -14.31818,-0.736 -32.36314,-0.7188 l -32.80902,0.031 -25.22144,24.9747 -25.22143,24.9747 -2.64305,15.7441 C 796.63782,1655.4729 711.75425,1767.8866 593,1824.278 c -40.50539,19.2344 -80.30706,30.912 -123.5,36.2344 -11.47111,1.4135 -46.70134,3.6254 -53,3.3276 -1.65,-0.078 -10.17507,-0.4971 -18.94461,-0.9313 z"
       id="path1" />
  </g>
</svg>
