<?xml version="1.0" encoding="UTF-8" standalone="no"?>
<!-- Created with Inkscape (http://www.inkscape.org/) -->

<svg
   version="1.1"
   id="svg1"
   width="1877"
   height="1881"
   viewBox="0 0 1877 1881"
   xmlns="http://www.w3.org/2000/svg"
   xmlns:svg="http://www.w3.org/2000/svg">
  <defs
     id="defs1" />
  <g
     id="g1">
    <path
       style="fill:#000000"
       d="m 1403.4979,1744.7183 c 15.0074,-11.1049 37.9222,-33.6667 51.335,-50.5442 30.1077,-37.885 50.7288,-84.0773 58.1121,-130.1741 1.9776,-12.3474 4.055,-34.193 4.055,-42.6424 v -4.3521 l -176.75,-0.2527 -176.75,-0.2528 7.8307,-4.2521 c 9.7194,-5.2777 34.1575,-21.2664 45.027,-29.4591 58.0679,-43.7675 105.7179,-101.1157 137.2954,-165.239 23.9736,-48.6825 40.0301,-105.3294 45.5078,-160.5498 1.0839,-10.9269 1.3391,-67.4407 1.3391,-296.5 v -283 l -2.3015,-8.5 c -7.6775,-28.3549 -25.4267,-58.67031 -51.3451,-87.69665 C 1341.5478,475.36151 1291.3093,421.225 1235.2123,361 c -56.097,-60.225 -101.9128,-109.59328 -101.8128,-109.70728 0.2382,-0.27172 31.1328,4.2228 42.9095,6.24244 115.3173,19.77632 230.1269,73.4527 322.691,150.86618 87.2838,72.99747 156.258,168.46135 198.8611,275.23428 25.1025,62.91257 39.3435,122.29836 46.8492,195.36438 1.5593,15.17867 1.7204,50.59428 2.0116,442.25 l 0.3165,425.75 -173.2692,-0.032 -173.2692,-0.032 z"
       id="path1" />
  </g>
</svg>
