<?xml version="1.0" encoding="UTF-8" standalone="no"?>
<!-- Created with Inkscape (http://www.inkscape.org/) -->

<svg
   version="1.1"
   id="svg1"
   width="1877"
   height="1881"
   viewBox="0 0 1877 1881"
   xmlns="http://www.w3.org/2000/svg"
   xmlns:svg="http://www.w3.org/2000/svg">
  <defs
     id="defs1" />
  <g
     id="g1">
    <path
       style="fill:#000000"
       d="m 247,1515.4668 c 0,-0.2933 1.07095,-2.6558 2.37988,-5.25 5.44374,-10.7891 18.79932,-41.9798 32.63539,-76.2168 17.35208,-42.9373 23.76541,-57.3579 37.80232,-85 13.04484,-25.6885 17.4797,-32.5692 27.15436,-42.1302 6.10325,-6.0316 9.69111,-8.5984 17.12448,-12.251 11.48659,-5.6442 20.56044,-7.6188 35.0111,-7.6188 13.95291,0 24.23329,2.0731 34.58632,6.9747 28.17224,13.3378 43.30615,37.8545 43.30615,70.1554 0,24.4328 -8.80345,43.1056 -27.10733,57.4968 -17.23494,13.5508 -60.87897,35.0017 -120.39267,59.1726 -35.33832,14.3523 -49.73562,20.497 -68.66586,29.3063 -12.70037,5.9103 -13.83414,6.3496 -13.83414,5.361 z"
       id="path1" />
  </g>
</svg>
