<?xml version="1.0" encoding="UTF-8" standalone="no"?>
<!-- Created with Inkscape (http://www.inkscape.org/) -->

<svg
   version="1.1"
   id="svg1"
   width="1877"
   height="1881"
   viewBox="0 0 1877 1881"
   xmlns="http://www.w3.org/2000/svg"
   xmlns:svg="http://www.w3.org/2000/svg">
  <defs
     id="defs1" />
  <g
     id="g1">
    <path
       style="fill:#000000"
       d="m 396,1861.985 c -55.9613,-3.5994 -102.39524,-15.6902 -151.23106,-39.3787 -83.16915,-40.3423 -149.342987,-106.7915 -189.357225,-190.145 -18.791662,-39.1449 -30.273266,-77.583 -35.862268,-120.0598 -3.72464,-28.3076 -4.307284,-64.5237 -1.492737,-92.7859 4.250978,-42.686 18.717023,-90.5534 42.19338,-139.6156 3.552877,-7.425 52.65006,-100.065 109.10484,-205.8667 C 225.80972,968.33156 272,881.59406 272,881.38327 272,881.17247 242.75,881 207,881 c -35.75,0 -65,-0.36593 -65,-0.81318 0,-1.22777 54.1305,-153.26346 58.45677,-164.18682 13.18357,-33.28712 32.17487,-65.36006 73.76879,-124.58235 9.68893,-13.7953 21.91065,-31.66721 27.15938,-39.71537 L 310.92809,537.06926 183.57398,408.78463 C 113.52923,338.22808 53.980172,277.8 51.242751,274.5 36.183575,256.34595 24.68853,231.78186 19.364599,206.37867 16.993371,195.06434 16.660466,191.19212 16.623907,174.5 16.589374,158.73295 16.962556,153.58954 18.817091,144.27224 31.032994,82.898836 76.937202,35.3588 138.36658,20.462533 c 20.42887,-4.953885 47.95932,-5.311465 68.9517,-0.895582 17.56708,3.695351 36.44203,11.645168 52.66224,22.18047 4.66429,3.029533 70.79286,50.750718 146.95239,106.047079 76.15952,55.29636 138.94329,100.52548 139.51948,100.50916 0.57618,-0.0163 9.37261,-5.62134 19.54761,-12.4556 76.30017,-51.24868 163.45578,-84.71954 253.72228,-97.4384 l 12.22229,-1.72217 2.67883,-7.09374 c 13.90834,-36.83031 41.3238,-69.484059 74.70022,-88.973263 35.84301,-20.929494 74.81296,-28.406624 115.18828,-22.101071 14.3881,2.247034 25.9803,6.061317 40.9881,13.486593 33.6903,16.668675 57.579,37.020415 101.5261,86.493991 11.7255,13.2 21.3765,24.09764 21.4468,24.21699 0.07,0.11934 8.5783,1.81738 18.9067,3.77342 188.309,35.6628 356.3081,136.72705 477.0827,287.00155 72.6752,90.42666 126.32,198.67167 154.1315,311.00804 12.1848,49.21715 17.6784,84.47756 22.5908,145 0.8203,10.1061 1.2395,147.4358 1.5073,493.75 l 0.371,479.75 H 1314.0315 C 1012.0642,1863 765,1862.7875 765,1862.5278 c 0,-0.2597 38.51908,-90.1472 85.59796,-199.75 47.07887,-109.6028 85.99274,-200.2903 86.47525,-201.5278 l 0.87729,-2.25 -33.22525,0.052 -33.22525,0.052 -25.69504,25.1984 -25.69504,25.1984 -2.64097,16 c -9.48845,57.4845 -30.77605,110.2602 -64.71912,160.4499 -14.19395,20.9878 -27.11555,36.6017 -47.10087,56.9146 -21.1196,21.4657 -37.71447,35.262 -62.02954,51.5689 -49.72088,33.3452 -107.31617,55.7224 -164.61942,63.9586 -25.09659,3.6071 -59.57496,5.0997 -83,3.593 z m 61.145,-116.4246 c 52.78408,-7.3373 100.62423,-27.9651 142.8212,-61.582 42.63134,-33.963 75.70639,-81.346 93.87086,-134.4784 C 702.25652,1524.8725 708,1492.0904 708,1468.6622 v -9.126 l 57.4925,-57.5181 57.4925,-57.5181 144.48655,-0.26 144.48655,-0.26 -0.8764,2.26 c -0.4821,1.243 -39.3976,91.9408 -86.4791,201.5507 C 977.52118,1657.4006 939,1747.2881 939,1747.5407 c 0,0.2526 182.0347,0.4593 404.5215,0.4593 h 404.5215 l -0.3059,-423.25 c -0.3313,-458.49666 7e-4,-429.09399 -5.328,-471.75 -10.1712,-81.41914 -37.2494,-166.64302 -75.981,-239.13691 -51.3172,-96.05044 -123.6355,-178.30746 -211.5049,-240.57211 -48.8202,-34.59419 -108.1969,-65.47687 -166.7283,-86.7177 -44.5728,-16.17532 -94.6221,-28.22822 -141.6949,-34.12306 -7.1557,-0.89609 -14.0617,-2.30562 -15.3617,-3.13532 -5.0716,-3.23699 -18.9542,-17.49619 -30.9707,-31.81096 -31.3414,-37.33564 -53.6268,-61.03193 -68.0129,-72.31888 -13.7163,-10.76138 -25.5453,-14.78388 -40.68266,-13.8342 -15.93939,0.99999 -27.00347,5.88516 -36.00559,15.89768 C 942.77798,161.36117 938,183.4317 938,227.92986 l 0,18.82093 -32.75,0.53162 c -32.94034,0.53472 -47.03877,1.63265 -73.12604,5.69473 -99.83232,15.54504 -196.88891,61.96432 -271.62396,129.90969 -5.5,5.00032 -10.48921,8.91362 -11.08713,8.69622 C 548.81495,391.36564 469.66165,334.1689 373.51665,264.47918 277.37166,194.78945 196.61684,136.72047 194.06151,135.437 c -16.51689,-8.29596 -37.63337,-4.69033 -50.77274,8.66941 -9.152,9.30551 -12.92219,20.20411 -12.01755,34.73949 0.43154,6.93378 1.12127,9.55638 4.07642,15.5 3.36132,6.76055 12.25002,15.9252 161.5821,166.59836 l 158.02511,159.44427 -3.64327,6.55573 C 437.36625,552.03756 422.38826,575.75957 381.82278,637 350.43615,684.3834 335.91962,707.03054 325.82034,724.369 318.52682,736.89054 304,764.15819 304,765.327 c 0,0.36364 36.12,0.77633 80.26666,0.91709 l 80.26666,0.25591 -143.26297,267 c -78.79464,146.85 -146.97507,274.2 -151.51207,283 -22.45524,43.5543 -33.33181,76.6619 -37.28731,113.5 -9.23562,86.0128 21.82652,172.6711 83.99489,234.332 45.61719,45.2449 107.79101,75.1728 169.53414,81.6069 5.775,0.6018 12.075,1.2723 14,1.4901 7.39442,0.8367 47.00021,-0.4585 57.145,-1.8686 z"
       id="path1" />
  </g>
</svg>
