<?xml version="1.0" encoding="UTF-8" standalone="no"?>
<!-- Created with Inkscape (http://www.inkscape.org/) -->

<svg
   version="1.1"
   id="svg1"
   width="2304"
   height="2304"
   viewBox="0 0 2304 2304"
   sodipodi:docname="browL.svg"
   inkscape:version="1.4 (86a8ad7, 2024-10-11)"
   xmlns:inkscape="http://www.inkscape.org/namespaces/inkscape"
   xmlns:sodipodi="http://sodipodi.sourceforge.net/DTD/sodipodi-0.dtd"
   xmlns="http://www.w3.org/2000/svg"
   xmlns:svg="http://www.w3.org/2000/svg">
  <defs
     id="defs1" />
  <sodipodi:namedview
     id="namedview1"
     pagecolor="#ffffff"
     bordercolor="#666666"
     borderopacity="1.0"
     inkscape:showpageshadow="2"
     inkscape:pageopacity="0.0"
     inkscape:pagecheckerboard="0"
     inkscape:deskcolor="#d1d1d1"
     showgrid="false"
     inkscape:zoom="0.29692961"
     inkscape:cx="1924.6986"
     inkscape:cy="1350.4884"
     inkscape:window-width="1828"
     inkscape:window-height="1264"
     inkscape:window-x="1628"
     inkscape:window-y="585"
     inkscape:window-maximized="0"
     inkscape:current-layer="g1" />
  <g
     inkscape:groupmode="layer"
     inkscape:label="Image"
     id="g1">
    <path
       style="fill:#000000"
       d="m 613.026,923.85909 c -15.95956,-2.6447 -34.00585,-17.073 -42.64112,-34.09229 -9.99513,-19.69942 -6.17601,-42.0754 10.72202,-62.81969 24.50319,-30.08049 57.81334,-59.6823 95.58566,-84.94432 57.96121,-38.76429 119.34934,-64.32072 189.57407,-78.92138 40.46367,-8.41294 100.81415,-12.81606 117.19182,-8.55022 18.37455,4.78595 36.28455,22.55927 41.15145,40.8372 1.6539,6.21151 1.8032,21.56017 0.2805,28.83239 -2.8152,13.44469 -16.2236,30.50662 -29.49343,37.52976 -8.60665,4.55514 -16.34591,5.98649 -36.39697,6.73153 -64.57935,2.39959 -113.17574,13.90183 -161.5,38.22532 -44.69578,22.49713 -81.59799,49.37058 -123.70175,90.08381 -16.67959,16.12873 -19.59901,18.52268 -27,22.14029 -11.48463,5.61368 -21.18079,7.03415 -33.77225,4.9476 z"
       id="path1" />
  </g>
</svg>
