<?xml version="1.0" encoding="UTF-8" standalone="no"?>
<!-- Created with Inkscape (http://www.inkscape.org/) -->

<svg
   version="1.1"
   id="svg1"
   width="2304"
   height="2304"
   viewBox="0 0 2304 2304"
   xmlns="http://www.w3.org/2000/svg"
   xmlns:svg="http://www.w3.org/2000/svg">
  <defs
     id="defs1" />
  <g
     id="g1">
    <path
       style="fill:#000000"
       d="m 623,1109.9606 c 0,-7.4273 2.08368,-23.3536 4.44317,-33.9606 12.69949,-57.0901 56.68416,-105.73 113.40907,-125.41188 21.41189,-7.42929 40.15597,-9.55846 84.14776,-9.55846 43.9688,0 62.69932,2.12571 84.14776,9.54986 62.70759,21.70555 107.58434,77.27638 115.79934,143.39428 0.5791,4.6605 1.0529,11.073 1.0529,14.25 V 1114 H 997.5 969 l -0.0148,-3.75 C 968.90199,1089.1348 951.15283,1066.2611 929,1058.7202 l -6.5,-2.2127 -94.1519,-0.2875 c -81.28078,-0.2483 -95.15162,-0.079 -101.46482,1.2372 -24.86074,5.1836 -43.8125,25.6926 -46.44339,50.2595 L 679.76701,1114 H 651.3835 623 Z"
       id="path1" />
  </g>
</svg>
