<?xml version="1.0" encoding="UTF-8" standalone="no"?>
<!-- Created with Inkscape (http://www.inkscape.org/) -->

<svg
   version="1.1"
   id="svg1"
   width="2304"
   height="2304"
   viewBox="0 0 2304 2304"
   xmlns="http://www.w3.org/2000/svg"
   xmlns:svg="http://www.w3.org/2000/svg">
  <defs
     id="defs1" />
  <g
     id="g1">
    <path
       style="fill:#000000"
       d="m 1258.5466,1106.75 c 2.3003,-29.7493 7.5169,-48.6838 20.0243,-72.6814 8.2224,-15.7763 17.4383,-28.0836 31.9229,-42.63161 14.7422,-14.80663 28.8406,-24.90949 46.5062,-33.32621 28.6942,-13.67125 49.1006,-17.06959 102.5,-17.06959 30.7136,0 50.8723,1.24479 63.9911,3.95141 35.9826,7.42377 71.8344,28.60273 95.6195,56.4858 23.3868,27.4162 38.716,62.4613 41.3449,94.5216 0.3383,4.125 0.8566,9.8625 1.1517,12.75 l 0.5367,5.25 H 1633.072 1604 v -4.7899 c 0,-17.5313 -13.6858,-38.0245 -31.1249,-46.6066 -13.6114,-6.6984 -11.3781,-6.5677 -112.3751,-6.5786 -57.2506,-0.01 -93.4107,0.37 -97.5,1.0144 -8.2249,1.2959 -21.0278,7.3774 -27.3381,12.9858 -10.9927,9.77 -19.6619,26.9773 -19.6619,39.0265 V 1114 h -29.007 -29.007 z"
       id="path1" />
  </g>
</svg>
