<?xml version="1.0" encoding="UTF-8" standalone="no"?>
<!-- Created with Inkscape (http://www.inkscape.org/) -->

<svg
   version="1.1"
   id="svg1"
   width="2304"
   height="2304"
   viewBox="0 0 2304 2304"
   xmlns="http://www.w3.org/2000/svg"
   xmlns:svg="http://www.w3.org/2000/svg">
  <defs
     id="defs1" />
  <g
     id="g1">
    <path
       style="fill:#000000"
       d="m 358.12765,1308.8054 c -5.61802,-17.4527 -15.99181,-77.0882 -19.53588,-112.3054 -5.41439,-53.8025 -4.63694,-124.8227 1.9699,-179.9503 C 359.09322,861.92177 424.65951,712.13729 526.40299,592 636.5737,461.91195 786.83732,369.51443 954,329.0694 c 41.51782,-10.04524 82.1677,-16.35954 130.5,-20.27105 21.2565,-1.72027 94.7674,-1.719 116,0.002 56.8544,4.60835 103.0805,12.52363 153.1952,26.23158 188.5855,51.58413 350.6942,167.79377 458.7436,328.85595 72.7224,108.40258 118.3237,231.85338 132.4669,358.61211 3.7321,33.4489 4.5639,50.2158 4.5639,92 0,51.802 -2.3921,84.1062 -9.4781,128 -4.2202,26.1418 -13.2616,69.5 -14.4927,69.5 -0.1846,0 -1.3596,-1.6875 -2.611,-3.75 -12.1808,-20.0756 -33.9077,-40.869 -57.2081,-54.75 -4.6161,-2.75 -64.6937,-34.925 -133.5057,-71.5 l -125.1129,-66.5 27.4695,-0.2658 27.4694,-0.2658 0,-5.445 c 0,-31.5166 -12.3754,-68.2247 -32.5918,-96.674 -7.9725,-11.2194 -28.7657,-31.832 -40.4108,-40.05985 -23.745,-16.7772 -53.208,-27.98332 -80.8534,-30.75229 -13.363,-1.33845 -83.8052,-1.34692 -97.288,-0.0117 -48.6761,4.82043 -94.8089,32.90423 -123.0026,74.87894 -18.7201,27.8704 -29.8534,62.3877 -29.8534,92.5561 V 1115 h 28.818 28.818 l 1.1528,-8.6164 c 2.1035,-15.721 11.9288,-31.037 25.9089,-40.3875 13.5759,-9.0801 5.5477,-8.4961 116.8023,-8.4961 109.5707,0 102.4677,-0.4438 115.3418,7.2074 11.8784,7.0594 21.8373,19.0999 26.6051,32.1661 2.0074,5.5013 2.0594,7.6898 2.3375,98.3765 l 0.2844,92.75 H 1142.5344 681 l 0.0148,-90.75 c 0.0164,-100.5211 -0.13391,-97.9803 6.49637,-109.8363 6.87423,-12.2923 17.83553,-21.8351 31.2638,-27.2179 L 725.5,1057.5 l 95.67585,-0.2788 c 81.78001,-0.2383 96.71665,-0.062 102.842,1.2154 22.93858,4.7828 43.92044,29.2687 43.97028,51.3134 L 968,1115 h 29.63701 29.63699 l -0.6861,-9.75 c -3.095,-43.9804 -19.3281,-81.1477 -48.89604,-111.9526 C 953.28487,967.86935 922.2516,950.97834 886.69704,943.77007 875.93288,941.58776 873.54767,941.5 825,941.5 c -48.54767,0 -50.93288,0.0878 -61.69704,2.27007 -42.51136,8.61867 -80.39871,32.41396 -105.94012,66.53603 -21.62359,28.8881 -31.73709,56.8245 -34.90877,96.4282 l -0.65944,8.2342 27.89854,0.2658 27.89855,0.2657 -127.98459,68 c -70.39153,37.4 -132.5351,70.9948 -138.09682,74.6551 -18.24243,12.0057 -34.57229,28.0163 -46.79099,45.876 l -5.52767,8.0796 z M 635.89689,923.46256 c 12.49524,-2.94539 18.78632,-7.28909 39.3281,-27.15425 41.52033,-40.15273 78.88154,-67.31971 122.92171,-89.3818 48.47919,-24.28584 94.23832,-35.36435 156.61245,-37.91665 26.9375,-1.10227 31.29091,-1.86835 41.74085,-7.34529 8.6264,-4.52121 20.1531,-16.39239 24.3378,-25.06535 8.0771,-16.73962 8.0771,-35.45882 0,-52.19844 -4.1806,-8.66435 -15.7079,-20.5394 -24.3378,-25.07202 -11.2311,-5.89885 -16.06437,-6.8017 -35.5,-6.63137 -130.61014,1.14461 -265.57035,56.64889 -354.5,145.79309 -33.20598,33.2861 -41.5,47.06334 -41.5,68.93591 0,16.42445 7.87078,32.29723 21.75102,43.86466 14.25106,11.87648 31.87783,16.24194 49.14587,12.17151 z m 1043.66201,-1.87634 c 8.6781,-3.14997 14.5075,-6.78095 21.7138,-13.5249 11.855,-11.09443 17.8791,-24.83745 17.9988,-41.06132 0.163,-22.10468 -7.4123,-34.50383 -42.1577,-69.00323 C 1621.6532,742.92885 1553.8822,702.63258 1475,677.82103 c -45.4303,-14.28963 -89.6843,-22.18679 -138.5,-24.71547 -35.0375,-1.81495 -48.0041,1.93101 -63.2537,18.27361 -10.7916,11.56506 -14.616,21.78546 -14.6386,39.12083 -0.024,18.47905 5.2344,30.70854 18.4507,42.91017 11.8544,10.94434 21.8239,14.10379 47.5255,15.06138 75.1313,2.79924 124.7925,16.34323 183.3966,50.01725 36.7028,21.08952 67.6761,44.92405 103.7528,79.83988 16.9516,16.40612 21.9349,20.22098 30.2995,23.19515 11.0717,3.93675 26.7804,3.96287 37.5261,0.0624 z"
       id="path1" />
  </g>
</svg>
