<?xml version="1.0" encoding="UTF-8" standalone="no"?>
<!-- Created with Inkscape (http://www.inkscape.org/) -->

<svg
   version="1.1"
   id="svg1"
   width="2304"
   height="2304"
   viewBox="0 0 2304 2304"
   xmlns="http://www.w3.org/2000/svg"
   xmlns:svg="http://www.w3.org/2000/svg">
  <defs
     id="defs1" />
  <g
     id="g1">
    <path
       style="fill:#000000"
       d="m 1109,2038.405 c -102.8564,-4.1743 -194.39918,-22.4012 -289.5,-57.6419 -152.63254,-56.5598 -292.99916,-158.4282 -398.33797,-289.0861 -6.12939,-7.6026 -11.48583,-14.3784 -11.90319,-15.0573 -0.41736,-0.6788 -4.58384,-2.711 -9.25884,-4.5161 -23.01133,-8.8847 -48.67099,-23.6039 -70,-40.1541 -13.38901,-10.3892 -36.50329,-33.2887 -47.93843,-47.4931 -26.85535,-33.3587 -45.28623,-70.4102 -55.45458,-111.48 -7.03101,-28.3982 -9.195,-49.1754 -8.27764,-79.4764 0.88052,-29.084 4.91836,-52.8238 13.40395,-78.8062 2.54956,-7.8066 4.5421,-14.5627 4.42786,-15.0136 -0.79495,-3.1378 -4.44627,-23.3201 -6.09331,-33.6802 C 208.02697,1127.3597 216.0471,988.42577 253.50471,860 302.11207,693.34661 391.1008,550.00652 518.5,433.15443 626.53571,334.06276 750.05973,265.02551 892.52558,224.11251 1030.0402,184.62141 1187.1382,179.23199 1330.5,209.08734 c 77.8452,16.21138 157.5704,44.22359 229,80.4613 208.7706,105.91365 372.7852,290.80826 451.4759,508.95136 31.7059,87.89381 48.6718,168.87214 53.9492,257.5 4.6627,78.305 0.072,152.2394 -14.6002,235.1186 l -1.7028,9.6186 4.7267,15.303 c 5.1925,16.8111 9.9663,39.1065 11.5988,54.1704 1.6091,14.8477 1.3274,55.5889 -0.4796,69.374 -2.4321,18.5529 -6.1655,34.5785 -12.4441,53.4154 -15.4167,46.2534 -36.3449,80.2452 -70.5239,114.5457 -21.0548,21.1297 -41.2432,36.5858 -64.5,49.3807 -9.319,5.1269 -30.0913,14.6614 -37,16.983 -2.6213,0.8808 -5.3829,3.5929 -11,10.8029 -33.1176,42.5087 -81.7119,93.1846 -126.0691,131.4694 -12.0819,10.4279 -43.4979,35.2057 -57.9781,45.7273 -141.693,102.957 -308.6915,163.5655 -482.4528,175.0959 -15.7468,1.0449 -78.9359,1.9911 -93.5,1.4001 z"
       id="path1" />
  </g>
</svg>
