<?xml version="1.0" encoding="UTF-8" standalone="no"?>
<!-- Created with Inkscape (http://www.inkscape.org/) -->

<svg
   version="1.1"
   id="svg1"
   width="2304"
   height="2304"
   viewBox="0 0 2304 2304"
   xmlns="http://www.w3.org/2000/svg"
   xmlns:svg="http://www.w3.org/2000/svg">
  <defs
     id="defs1" />
  <g
     id="g1">
    <path
       style="fill:#000000"
       d="m 1102.5,1921.3452 c -58.9971,-3.4732 -105.20184,-10.2809 -155.61035,-22.9273 -117.02141,-29.3581 -230.12888,-86.9208 -322.37167,-164.0613 -53.51716,-44.7552 -106.60002,-102.4045 -142.36016,-154.6066 -3.77275,-5.5074 -5.06615,-5.1252 12.67395,-3.7457 41.08169,3.1943 82.97276,-9.1768 116.48757,-34.4008 30.48,-22.9399 53.37997,-56.5484 63.20394,-92.7593 5.17943,-19.0913 5.6847,-25.1245 6.35188,-75.8442 0.44751,-34.0192 0.85929,-45.2296 1.45092,-39.5 9.2833,89.9024 43.16235,172.2053 100.23399,243.5 71.88823,89.8038 179.08181,151.7341 290.68023,167.9386 25.8968,3.7603 36.9223,4.4602 69.7597,4.4281 43.8945,-0.043 71.7238,-3.2093 109.0392,-12.4068 111.9246,-27.5869 211.7779,-98.2636 275.4429,-194.9599 42.5606,-64.6424 67.5395,-134.2775 74.7405,-208.3582 1.2362,-12.7176 1.2967,-11.4633 1.8745,38.8582 0.6411,55.8335 0.8912,58.846 6.4979,78.2618 13.6988,47.4389 44.9625,85.3904 87.905,106.7094 30.2867,15.0359 60.3939,21.0288 92.6505,18.4422 7.1774,-0.5755 13.2731,-0.8231 13.5461,-0.5502 0.6251,0.6251 -3.6283,6.8715 -15.0739,22.1368 -84.095,112.1599 -193.301,199.1453 -321.1227,255.7824 -90.2871,40.0057 -181.6593,62.0295 -280.8609,67.6972 -15.8488,0.9054 -71.8811,1.146 -85.1391,0.3656 z"
       id="path1" />
  </g>
</svg>
