<?xml version="1.0" encoding="UTF-8" standalone="no"?>
<!-- Created with Inkscape (http://www.inkscape.org/) -->

<svg
   version="1.1"
   id="svg1"
   width="2304"
   height="2304"
   viewBox="0 0 2304 2304"
   xmlns="http://www.w3.org/2000/svg"
   xmlns:svg="http://www.w3.org/2000/svg">
  <defs
     id="defs1" />
  <g
     id="g1">
    <path
       style="fill:#000000"
       d="m 1111.5,1748.4151 c -2.2,-0.2097 -9.625,-0.8784 -16.5,-1.4859 -94.7487,-8.372 -191.96088,-52.8647 -266.7524,-122.0889 -50.20378,-46.4666 -90.46958,-105.9021 -116.71374,-172.2785 -18.36716,-46.454 -28.19854,-94.3242 -30.18477,-146.9732 L 680.68554,1288 h 461.79216 461.7922 l -0.6795,13.75 c -2.2589,45.7113 -7.169,77.2699 -17.6833,113.6559 -7.0034,24.2362 -14.6,43.6908 -27.5655,70.5941 -37.3927,77.5896 -95.6732,143.7972 -166.7666,189.4497 -61.4082,39.4331 -125.1579,62.4883 -196.575,71.0915 -12.7258,1.533 -72.909,2.8836 -83.5,1.8739 z m 68.6601,-57.8982 c 31.2289,-2.9917 58.5245,-8.7435 87.8399,-18.5099 15.5069,-5.1661 35.8133,-13.2255 43.5924,-17.3014 l 2.7186,-1.4244 -11.4055,-11.4305 c -44.8935,-44.992 -104.4461,-68.0228 -169.4055,-65.5143 -58.7749,2.2696 -111.334,25.0262 -153.18833,66.3263 l -10.7242,10.5822 3.95626,2.0328 c 7.91575,4.0673 36.20107,14.9346 49.90757,19.1746 25.8997,8.0118 55.4491,13.8603 83.0487,16.4371 15.4307,1.4407 56.9233,1.2309 73.6601,-0.3725 z m 331.2743,-238.2925 c 10.8054,-23.9607 18.3232,-45.3496 23.9795,-68.2244 3.7728,-15.2577 7.7065,-36.9776 6.9273,-38.25 -0.2526,-0.4125 -180.4327,-0.75 -400.4002,-0.75 -346.58125,0 -399.941,0.1912 -399.941,1.4334 0,0.7884 1.14702,7.6509 2.54892,15.25 5.85678,31.7469 14.99489,61.5172 27.49289,89.5666 l 4.34432,9.75 365.55697,-0.026 365.5569,-0.026 z"
       id="path1" />
  </g>
</svg>
