<?xml version="1.0" encoding="UTF-8" standalone="no"?>
<!-- Created with Inkscape (http://www.inkscape.org/) -->

<svg
   version="1.1"
   id="svg1"
   width="2304"
   height="2304"
   viewBox="0 0 2304 2304"
   xmlns="http://www.w3.org/2000/svg"
   xmlns:svg="http://www.w3.org/2000/svg">
  <defs
     id="defs1" />
  <g
     id="g1">
    <path
       style="fill:#000000"
       d="m 1116,2037.3208 c -26.6258,-0.6526 -65.5735,-3.7214 -94,-7.4066 -164.78357,-21.3622 -320.49804,-87.6161 -453,-192.7441 -55.43246,-43.9804 -108.42071,-97.0929 -152.01763,-152.3738 l -8.4414,-10.7037 -10.52048,-4.1466 c -61.75347,-24.3399 -116.37577,-74.7527 -147.24534,-135.8978 -35.18824,-69.6993 -41.14697,-146.9423 -17.0857,-221.4816 3.9386,-12.2014 3.93988,-10.9305 -0.0338,-33.5666 C 210.52104,1147.2117 215.42041,1009.148 247.60183,886 283.68751,747.91162 347.38375,624.895 438.40584,517.5 573.11798,358.55605 759.24814,249.00089 963.38038,208.50293 1022.3516,196.80358 1076.9442,191.65392 1142,191.65392 c 61.4363,0 113.5138,4.58674 168.4439,14.83574 269.7291,50.32673 502.7004,217.49432 637.6043,457.51034 55.1451,98.11209 93.5366,212.00419 108.8789,323 9.2466,66.8958 10.9139,145.4942 4.5183,213 -2.8099,29.6584 -7.4261,63.2783 -12.3845,90.1964 l -1.9703,10.6964 2.8581,8.4555 c 6.5828,19.4744 11.8226,43.5114 14.0736,64.5616 1.4404,13.4686 1.4459,44.6743 0.01,58.0901 -7.1709,67.0153 -36.4693,128.5284 -83.6066,175.535 -28.7986,28.7188 -59.8847,49.0071 -98.7294,64.4356 -5.1128,2.0307 -6.6001,3.3289 -12.5,10.9104 -108.4296,139.336 -262.3075,248.5322 -430.1921,305.2769 -89.2788,30.176 -169.9625,45.0735 -264.5046,48.8381 -22.5153,0.8965 -32.8376,0.9539 -58.5,0.3248 z m 89.5,-116.788 c 127.7508,-10.5029 244.0401,-47.8444 354.5,-113.8331 79.5048,-47.4962 153.5323,-112.2206 212.9625,-186.1997 8.5424,-10.6336 23.342,-30.3713 31.5731,-42.1079 2.6162,-3.7304 3.4822,-4.2249 9.4227,-5.3804 23.2347,-4.5194 51.1577,-17.9203 71.5962,-34.3607 31.6454,-25.4552 55.7587,-65.9669 62.3812,-104.804 6.5161,-38.2129 1.2548,-75.2205 -15.429,-108.5257 l -6.1597,-12.2964 3.7901,-16.2624 c 14.0874,-60.4458 20.1794,-115.469 20.1794,-182.2625 0,-98.746 -14.849,-183.90099 -48.1278,-276 -29.2875,-81.05302 -74.1823,-161.28959 -127.5731,-228 C 1680.0059,492.28755 1557.552,404.79114 1414.8375,353.42947 1330.3384,323.019 1248.4443,308.08471 1156.5,306.31881 1048.2473,304.23969 944.16846,323.29993 842.5,363.82246 696.41077,422.05 571.39377,520.82316 480.79412,649.59823 403.69105,759.18977 354.00358,889.75204 339.07092,1022 c -3.84238,34.0292 -4.57022,48.7606 -4.57022,92.5 0,43.7394 0.72784,58.4708 4.57022,92.5 3.46351,30.6738 9.80261,66.9953 16.53213,94.7249 l 2.72409,11.2248 -6.0852,12.2752 c -11.63953,23.4793 -16.9938,44.5898 -17.95079,70.7751 -1.06279,29.0804 3.75656,53.9234 15.27528,78.7417 22.99405,49.543 68.65073,86.9671 119.40386,97.8734 l 8.19743,1.7615 4.62355,6.5617 c 97.39353,138.2195 239.00234,244.079 399.47471,298.6266 73.25169,24.8997 138.32932,37.4936 219.23402,42.4265 20.2954,1.2375 82.7615,0.3697 105,-1.4586 z"
       id="path1" />
  </g>
</svg>
