<?xml version="1.0" encoding="UTF-8" standalone="no"?>
<!-- Created with Inkscape (http://www.inkscape.org/) -->

<svg
   version="1.1"
   id="svg1"
   width="2304"
   height="2304"
   viewBox="0 0 2304 2304"
   xmlns="http://www.w3.org/2000/svg"
   xmlns:svg="http://www.w3.org/2000/svg">
  <defs
     id="defs1" />
  <g
     id="g1">
    <path
       style="fill:#000000"
       d="m 1760.5,1575.3647 c -10.1462,-1.1043 -27.0652,-4.6055 -35.6074,-7.3686 -12.0068,-3.8837 -32.9164,-14.1549 -44.088,-21.6569 -39.478,-26.5106 -67.0305,-69.594 -74.1339,-115.922 -1.2861,-8.3878 -1.6266,-33.4736 -2.2083,-162.6672 -0.3783,-84.0125 -0.48,-152.75 -0.2261,-152.75 0.712,0 253.351,134.6967 261.0837,139.1991 39.5564,23.0317 71.5529,67.1005 80.6783,111.1181 8.4268,40.6479 3.7199,78.8497 -13.9969,113.5999 -16.8505,33.0512 -39.5323,57.2791 -69.846,74.6066 -17.8849,10.2232 -34.8783,16.5312 -53.8936,20.0055 -8.5388,1.5601 -39.3965,2.746 -47.7618,1.8355 z"
       id="path1" />
  </g>
</svg>
