<?xml version="1.0" encoding="UTF-8" standalone="no"?>
<!-- Created with Inkscape (http://www.inkscape.org/) -->

<svg
   version="1.1"
   id="svg1"
   width="2304"
   height="2304"
   viewBox="0 0 2304 2304"
   xmlns="http://www.w3.org/2000/svg"
   xmlns:svg="http://www.w3.org/2000/svg">
  <defs
     id="defs1" />
  <g
     id="g1">
    <path
       style="fill:#000000"
       d="m 490.5,1575.3526 c -27.04859,-3.1357 -46.00943,-9.2428 -68.27822,-21.9918 -42.49158,-24.3268 -73.98856,-67.5999 -84.36806,-115.9115 -2.08913,-9.7239 -2.35016,-13.5234 -2.3324,-33.9493 0.0154,-17.7062 0.42455,-25.1257 1.77764,-32.2358 9.24768,-48.5935 40.06462,-92.6525 81.78537,-116.9285 4.17138,-2.4272 64.47138,-34.7166 134,-71.7542 L 679.5,1115.2403 l 0.28964,149.1299 c 0.19994,102.9457 -0.0482,152.1341 -0.8013,158.8307 -8.76556,77.9451 -73.8992,142.7489 -152.52886,151.7563 -8.35417,0.957 -29.14275,1.1856 -35.95948,0.3954 z"
       id="path1" />
  </g>
</svg>
